<svg width="108" height="30" viewBox="0 0 108 30" fill="none" xmlns="http://www.w3.org/2000/svg">
<path d="M9.76 4.48H0.16V0.999998H23.32V4.48H13.72V29H9.76V4.48ZM47.9966 25.52V29H27.6766V0.999998H47.4366V4.48H31.6766V13.08H45.7166V16.48H31.6766V25.52H47.9966ZM66.8763 29.32C64.0763 29.32 61.5429 28.7067 59.2763 27.48C57.0363 26.2267 55.2763 24.52 53.9963 22.36C52.7163 20.1733 52.0763 17.72 52.0763 15C52.0763 12.28 52.7163 9.84 53.9963 7.68C55.2763 5.49333 57.0496 3.78667 59.3163 2.56C61.5829 1.30667 64.1163 0.68 66.9163 0.68C69.1029 0.68 71.1029 1.05333 72.9163 1.8C74.7296 2.52 76.2763 3.6 77.5563 5.04L74.9563 7.56C72.8496 5.34667 70.2229 4.24 67.0763 4.24C64.9963 4.24 63.1163 4.70667 61.4363 5.64C59.7563 6.57333 58.4363 7.86667 57.4763 9.52C56.5429 11.1467 56.0763 12.9733 56.0763 15C56.0763 17.0267 56.5429 18.8667 57.4763 20.52C58.4363 22.1467 59.7563 23.4267 61.4363 24.36C63.1163 25.2933 64.9963 25.76 67.0763 25.76C70.1963 25.76 72.8229 24.64 74.9563 22.4L77.5563 24.92C76.2763 26.36 74.7163 27.4533 72.8763 28.2C71.0629 28.9467 69.0629 29.32 66.8763 29.32ZM107.343 0.999998V29H103.343V16.52H87.2625V29H83.2625V0.999998H87.2625V13.04H103.343V0.999998H107.343Z" fill="#333333"/>
</svg>
